<svg width="776" height="645" viewBox="0 0 776 645" fill="none" xmlns="http://www.w3.org/2000/svg">
<rect x="313" width="463" height="367" rx="20" fill="url(#paint0_linear_943_60)"/>
<rect y="2" width="192" height="152" rx="20" fill="url(#paint1_linear_943_60)"/>
<rect x="593" y="500" width="183" height="145" rx="20" fill="url(#paint2_linear_943_60)"/>
<rect x="565" y="465" width="182" height="145" rx="20" fill="url(#paint3_linear_943_60)"/>
<mask id="mask0_943_60" style="mask-type:luminance" maskUnits="userSpaceOnUse" x="359" y="88" width="196" height="415">
<path d="M460.054 91.478C453.347 92.8848 446.623 94.6514 440.03 96.8924C430.646 99.9512 421.392 103.959 412.596 108.768C403.555 113.593 395.003 119.351 386.778 125.943C382.257 129.591 377.867 133.468 373.705 137.59L359.034 151.674C359.034 151.674 359.425 152.263 359.638 152.606C413.755 219.443 462.959 307.266 488.108 420.771C494 447.303 499.435 480.591 501.067 502.346C527.244 477.008 586.665 166.036 531.862 92.1978C528.729 91.4944 525.612 90.9055 522.478 90.3167C519.345 89.8423 516.228 89.3679 513.094 89.0244C509.977 88.7791 506.844 88.5501 503.727 88.321C500.528 88.1411 497.329 88.0593 494.147 88.0593C482.723 88.0593 471.299 89.2043 460.087 91.4944" fill="white"/>
</mask>
<g mask="url(#mask0_943_60)">
<path d="M415.947 -10.7543L180.058 398.757L529.764 601.124L765.653 191.613L415.947 -10.7543Z" fill="url(#paint4_linear_943_60)"/>
</g>
<mask id="mask1_943_60" style="mask-type:luminance" maskUnits="userSpaceOnUse" x="500" y="92" width="169" height="411">
<path d="M532.418 93.2446C585.637 169.225 527.163 476.485 501.1 502.084L500.561 502.82L610.639 394.795L615.16 390.542C684.047 322.79 685.907 211.051 619.207 140.96C616.661 138.261 614.001 135.676 611.211 133.19C610.052 132.012 608.893 130.949 607.734 130.016C605.074 127.661 602.398 125.42 599.64 123.31L598.938 122.721C595.821 120.251 592.573 118.01 589.211 115.785C585.621 113.43 582.03 111.205 578.326 109.193C574.621 107.083 570.917 105.202 567.098 103.435C563.85 101.914 560.488 100.491 557.142 99.1988C555.755 98.6099 554.368 98.021 552.981 97.5467C549.978 96.4998 546.845 95.4365 543.825 94.4878C539.778 93.3101 535.91 92.9502 531.863 92.1323C532.075 92.4431 532.206 92.9175 532.401 93.2283" fill="white"/>
</mask>
<g mask="url(#mask1_943_60)">
<path d="M546.9 11.707L323.145 400.154L639.566 583.26L863.321 194.813L546.9 11.707Z" fill="url(#paint5_linear_943_60)"/>
</g>
<mask id="mask2_943_60" style="mask-type:luminance" maskUnits="userSpaceOnUse" x="123" y="88" width="379" height="557">
<path d="M219.563 88.5828C168.4 182.802 127.29 298.957 123.128 405.608L354.334 645C354.334 645 498.733 508.153 501.067 502.33C499.451 480.869 494.881 447.385 488.99 421.164C462.356 302.572 410.964 209.743 352.832 142.775L351.559 141.385C342.991 132.568 333.852 124.782 324.125 118.174C319.262 114.918 314.17 111.909 309.078 109.128C300.739 104.613 292.171 100.9 283.374 97.8738C276.536 95.5511 269.6 93.5882 262.534 92.1814C261.489 91.8379 260.331 91.6089 259.172 91.478C255.108 90.7747 251.175 90.0877 247.242 89.6296C243.195 89.1716 239.147 88.9263 235.214 88.6973C232.342 88.501 229.486 88.4192 226.613 88.4192C224.263 88.4192 221.93 88.4846 219.58 88.5828" fill="white"/>
</mask>
<g mask="url(#mask2_943_60)">
<path d="M217.599 -75.6046L-117.336 505.854L406.566 809.024L741.501 227.566L217.599 -75.6046Z" fill="url(#paint6_linear_943_60)"/>
</g>
<mask id="mask3_943_60" style="mask-type:luminance" maskUnits="userSpaceOnUse" x="53" y="88" width="167" height="318">
<path d="M212.741 89.0571C207.307 89.4006 201.856 90.104 196.536 91.02C193.99 91.4944 191.444 91.9524 188.898 92.5249C186.466 93.0974 183.92 93.6863 181.374 94.3733C179.742 94.8313 178.241 95.1912 176.625 95.7637C174.536 96.3362 172.464 96.9251 170.375 97.743C168.286 98.43 166.213 99.1334 164.124 99.9349C158.461 102.143 152.896 104.695 147.461 107.492C145.258 108.539 143.055 109.815 140.868 111.091C139.481 111.794 138.208 112.596 136.935 113.413C135.074 114.575 133.23 115.736 131.37 116.898C129.167 118.403 126.963 119.907 124.777 121.543C118.183 126.303 111.933 131.521 105.911 137.328C37.024 204.279 35.1798 314.398 101.847 383.558L112.732 394.812L123.145 405.591C127.306 298.957 168.416 182.786 219.579 88.5664C217.262 88.6809 215.059 88.7954 212.741 89.0244" fill="white"/>
</mask>
<g mask="url(#mask3_943_60)">
<path d="M81.2508 8.54071L-101.811 326.341L173.468 485.639L356.529 167.838L81.2508 8.54071Z" fill="url(#paint7_linear_943_60)"/>
</g>
<rect y="406" width="302" height="239" rx="20" fill="url(#paint8_linear_943_60)"/>
<rect x="747" y="234" width="162" height="128" rx="20" transform="rotate(-180 747 234)" fill="url(#paint9_linear_943_60)"/>
<defs>
<linearGradient id="paint0_linear_943_60" x1="1023.5" y1="-11.5" x2="544.5" y2="367" gradientUnits="userSpaceOnUse">
<stop stop-color="#FFFFF7"/>
<stop offset="0.429031" stop-color="#FAFFFF"/>
<stop offset="1" stop-color="#E1FFFE"/>
</linearGradient>
<linearGradient id="paint1_linear_943_60" x1="-34" y1="-13.5" x2="168.715" y2="163.754" gradientUnits="userSpaceOnUse">
<stop offset="0.355769" stop-color="#DDE9F6"/>
<stop offset="1" stop-color="#EBFDFF"/>
</linearGradient>
<linearGradient id="paint2_linear_943_60" x1="560.594" y1="485.214" x2="753.951" y2="654.139" gradientUnits="userSpaceOnUse">
<stop offset="0.355769" stop-color="#DDE9F6"/>
<stop offset="1" stop-color="#EBFDFF"/>
</linearGradient>
<linearGradient id="paint3_linear_943_60" x1="532.771" y1="450.214" x2="725.983" y2="618.09" gradientUnits="userSpaceOnUse">
<stop offset="0.355769" stop-color="#E2DDF6"/>
<stop offset="1" stop-color="#F8FEFF"/>
</linearGradient>
<linearGradient id="paint4_linear_943_60" x1="579.859" y1="113.975" x2="393.903" y2="435.321" gradientUnits="userSpaceOnUse">
<stop stop-color="#0D3C5B"/>
<stop offset="0.33" stop-color="#1F75AB"/>
<stop offset="0.67" stop-color="#31B1FF"/>
<stop offset="1" stop-color="#31B1FF"/>
</linearGradient>
<linearGradient id="paint5_linear_943_60" x1="657.24" y1="172.235" x2="467.649" y2="499.863" gradientUnits="userSpaceOnUse">
<stop stop-color="#31B1FF"/>
<stop offset="0.2" stop-color="#31B1FF"/>
<stop offset="1" stop-color="#00E9CB"/>
</linearGradient>
<linearGradient id="paint6_linear_943_60" x1="429.289" y1="171.843" x2="208.967" y2="552.576" gradientUnits="userSpaceOnUse">
<stop stop-color="#0D3C5B"/>
<stop offset="0.24" stop-color="#0A6676"/>
<stop offset="1" stop-color="#00E9CB"/>
</linearGradient>
<linearGradient id="paint7_linear_943_60" x1="226.172" y1="82.7055" x2="64.1686" y2="362.66" gradientUnits="userSpaceOnUse">
<stop stop-color="#0D3C5B"/>
<stop offset="0.42" stop-color="#078288"/>
<stop offset="1" stop-color="#00E9CB"/>
</linearGradient>
<linearGradient id="paint8_linear_943_60" x1="463.436" y1="398.511" x2="151.384" y2="645.485" gradientUnits="userSpaceOnUse">
<stop stop-color="#FFFFF7" stop-opacity="0.5"/>
<stop offset="0.701923" stop-color="#FAFFFF" stop-opacity="0.7"/>
<stop offset="1" stop-color="#E1FFFE"/>
</linearGradient>
<linearGradient id="paint9_linear_943_60" x1="995.598" y1="229.989" x2="828.413" y2="362.521" gradientUnits="userSpaceOnUse">
<stop stop-color="#FFFFF7" stop-opacity="0.5"/>
<stop offset="0.701923" stop-color="#FAFFFF" stop-opacity="0.7"/>
<stop offset="1" stop-color="#E1FFFE"/>
</linearGradient>
</defs>
</svg>
