<svg width="1297" height="306" viewBox="0 0 1297 306" fill="none" xmlns="http://www.w3.org/2000/svg">
<path d="M1149.32 231H1109.28L1178.12 47.256H1227.08L1296.2 231H1255.59L1238.88 185.784H1166.31L1149.32 231ZM1176.39 156.984H1228.8L1202.6 85.56L1176.39 156.984Z" fill="#156073"/>
<path d="M950.556 231H911.964V47.256H949.404L1042.72 168.792V47.256H1081.31V231H1043.87L950.556 109.752V231Z" fill="#156073"/>
<path d="M676.837 139.128C676.837 82.392 722.917 44.376 778.213 44.376C833.509 44.376 879.013 82.392 879.013 139.128C879.013 195.864 833.509 233.88 778.213 233.88C723.205 233.88 676.837 195.576 676.837 139.128ZM778.213 200.472C813.349 200.472 840.133 173.976 840.133 139.128C840.133 103.992 813.349 77.496 778.213 77.496C742.789 77.496 715.717 103.704 715.717 139.128C715.717 174.264 742.789 200.472 778.213 200.472Z" fill="#156073"/>
<path d="M560.291 231H468.995V47.256H560.291C619.331 47.256 656.483 83.256 656.483 139.128C656.483 195 619.331 231 560.291 231ZM507.587 80.376V197.88H559.427C593.411 197.88 617.603 179.448 617.603 139.128C617.603 98.808 593.411 80.376 559.427 80.376H507.587Z" fill="#156073"/>
<path d="M424.056 231H385.464V47.256H424.056V231Z" fill="#156073"/>
<mask id="mask0_179_2" style="mask-type:luminance" maskUnits="userSpaceOnUse" x="158" y="25" width="91" height="191">
<path d="M204.993 27.2273C201.927 27.8705 198.854 28.6784 195.84 29.7031C191.551 31.1019 187.321 32.9345 183.3 35.1336C179.168 37.3402 175.259 39.9732 171.499 42.9877C169.433 44.6557 167.426 46.4285 165.524 48.3134L158.817 54.7537C158.817 54.7537 158.996 55.023 159.093 55.1801C183.83 85.7434 206.321 125.904 217.816 177.807C220.509 189.94 222.993 205.162 223.739 215.11C235.705 203.524 262.866 61.3212 237.816 27.5564C236.384 27.2347 234.959 26.9655 233.526 26.6962C232.094 26.4793 230.669 26.2623 229.237 26.1053C227.812 25.9931 226.38 25.8883 224.955 25.7836C223.493 25.7013 222.031 25.6639 220.576 25.6639C215.355 25.6639 210.133 26.1875 205.008 27.2347" fill="white"/>
</mask>
<g mask="url(#mask0_179_2)">
<path d="M184.832 -19.5219L77.0093 167.741L236.857 260.28L344.679 73.0171L184.832 -19.5219Z" fill="url(#paint0_linear_179_2)"/>
</g>
<mask id="mask1_179_2" style="mask-type:luminance" maskUnits="userSpaceOnUse" x="223" y="27" width="78" height="189">
<path d="M238.07 28.0351C262.396 62.7798 235.668 203.284 223.754 214.991L223.508 215.327L273.824 165.929L275.89 163.984C307.378 133.002 308.228 81.9062 277.74 49.8543C276.577 48.6201 275.361 47.4383 274.085 46.3013C273.556 45.7627 273.026 45.2765 272.496 44.8502C271.28 43.7731 270.057 42.7483 268.796 41.7834L268.475 41.5141C267.051 40.3846 265.566 39.3598 264.03 38.3426C262.388 37.2654 260.747 36.2482 259.054 35.3281C257.361 34.3632 255.667 33.503 253.922 32.6952C252.437 31.9995 250.9 31.3487 249.371 30.7578C248.737 30.4885 248.103 30.2193 247.469 30.0023C246.096 29.5236 244.664 29.0374 243.284 28.6036C241.434 28.065 239.666 27.9005 237.816 27.5265C237.913 27.6686 237.973 27.8855 238.062 28.0276" fill="white"/>
</mask>
<g mask="url(#mask1_179_2)">
<path d="M244.69 -9.25067L142.413 168.379L287.046 252.111L389.323 74.4806L244.69 -9.25067Z" fill="url(#paint1_linear_179_2)"/>
</g>
<mask id="mask2_179_2" style="mask-type:luminance" maskUnits="userSpaceOnUse" x="50" y="25" width="174" height="256">
<path d="M95.0668 25.9033C71.6806 68.9882 52.8895 122.104 50.9873 170.874L156.669 280.344C156.669 280.344 222.673 217.766 223.739 215.103C223.001 205.289 220.912 189.977 218.219 177.987C206.045 123.757 182.554 81.3078 155.983 50.6846L155.401 50.0488C151.485 46.0171 147.307 42.4566 142.861 39.4346C140.638 37.9461 138.311 36.5698 135.983 35.2982C132.171 33.2337 128.255 31.5357 124.234 30.1519C121.109 29.0898 117.938 28.1922 114.708 27.5489C114.231 27.3918 113.701 27.2871 113.172 27.2273C111.314 26.9056 109.516 26.5915 107.718 26.382C105.868 26.1726 104.018 26.0604 102.221 25.9557C100.908 25.8659 99.6023 25.8285 98.2894 25.8285C97.2152 25.8285 96.1484 25.8584 95.0742 25.9033" fill="white"/>
</mask>
<g mask="url(#mask2_179_2)">
<path d="M94.1691 -49.1767L-58.9268 216.714L180.544 355.349L333.64 89.4579L94.1691 -49.1767Z" fill="url(#paint2_linear_179_2)"/>
</g>
<mask id="mask3_179_2" style="mask-type:luminance" maskUnits="userSpaceOnUse" x="18" y="25" width="78" height="146">
<path d="M91.9486 26.1202C89.4645 26.2773 86.973 26.5989 84.5411 27.0178C83.3774 27.2347 82.2137 27.4442 81.05 27.706C79.9385 27.9678 78.7748 28.2371 77.6111 28.5512C76.8651 28.7607 76.1788 28.9252 75.4403 29.187C74.4854 29.4488 73.538 29.7181 72.5832 30.0921C71.6284 30.4063 70.681 30.7279 69.7261 31.0944C67.1376 32.1042 64.5938 33.2711 62.1098 34.5502C61.1027 35.0289 60.0956 35.6124 59.096 36.1958C58.462 36.5174 57.8801 36.884 57.2982 37.258C56.4478 37.789 55.6049 38.3201 54.7545 38.8512C53.7474 39.5394 52.7403 40.2275 51.7407 40.9755C48.727 43.1522 45.8699 45.5383 43.1173 48.1937C11.6298 78.8094 10.7869 129.165 41.2598 160.79L46.2355 165.937L50.9948 170.866C52.897 122.104 71.688 68.9807 95.0743 25.8958C94.015 25.9482 93.0079 26.0005 91.9486 26.1053" fill="white"/>
</mask>
<g mask="url(#mask3_179_2)">
<path d="M31.8456 -10.6986L-51.8301 134.626L73.9973 207.47L157.673 62.1455L31.8456 -10.6986Z" fill="url(#paint3_linear_179_2)"/>
</g>
<defs>
<linearGradient id="paint0_linear_179_2" x1="259.754" y1="37.5146" x2="174.702" y2="184.43" gradientUnits="userSpaceOnUse">
<stop stop-color="#0D3C5B"/>
<stop offset="0.33" stop-color="#1F75AB"/>
<stop offset="0.67" stop-color="#31B1FF"/>
<stop offset="1" stop-color="#31B1FF"/>
</linearGradient>
<linearGradient id="paint1_linear_179_2" x1="295.125" y1="64.1563" x2="208.41" y2="213.943" gradientUnits="userSpaceOnUse">
<stop stop-color="#31B1FF"/>
<stop offset="0.2" stop-color="#31B1FF"/>
<stop offset="1" stop-color="#00E9CB"/>
</linearGradient>
<linearGradient id="paint2_linear_179_2" x1="190.93" y1="63.9771" x2="90.1599" y2="238.043" gradientUnits="userSpaceOnUse">
<stop stop-color="#0D3C5B"/>
<stop offset="0.24" stop-color="#0A6676"/>
<stop offset="1" stop-color="#00E9CB"/>
</linearGradient>
<linearGradient id="paint3_linear_179_2" x1="98.0877" y1="23.2157" x2="23.9908" y2="151.207" gradientUnits="userSpaceOnUse">
<stop stop-color="#0D3C5B"/>
<stop offset="0.42" stop-color="#078288"/>
<stop offset="1" stop-color="#00E9CB"/>
</linearGradient>
</defs>
</svg>
